<svg xmlns="http://www.w3.org/2000/svg" viewBox="0 0 32 32">
    <path d="M22.5 6C22.5 4.61929 21.3807 3.5 20 3.5H6C4.61929 3.5 3.5 4.61929 3.5 6V8.61538C3.5 8.89153 3.72386 9.11538 4 9.11538C4.27614 9.11538 4.5 8.89153 4.5 8.61538V6C4.5 5.6208 4.64071 5.27446 4.87276 5.01035L11.1224 8.92781C12.2564 9.63864 13.6965 9.64053 14.8324 8.93268L21.1269 5.01003C21.3592 5.27418 21.5 5.62064 21.5 6V14C21.5 14.8284 20.8284 15.5 20 15.5H15C14.7239 15.5 14.5 15.7239 14.5 16C14.5 16.2761 14.7239 16.5 15 16.5H20C21.3807 16.5 22.5 15.3807 22.5 14V6ZM20.0531 4.50092L14.3035 8.08398C13.4922 8.5896 12.4635 8.58825 11.6535 8.08051L5.94311 4.50106C5.96198 4.50036 5.98095 4.5 6 4.5H20C20.0178 4.5 20.0355 4.50031 20.0531 4.50092Z"></path><path d="M7 11.5C9.48528 11.5 11.5 13.5147 11.5 16C11.5 18.4853 9.48528 20.5 7 20.5C4.51472 20.5 2.5 18.4853 2.5 16C2.5 13.5147 4.51472 11.5 7 11.5ZM12.5 16C12.5 12.9624 10.0376 10.5 7 10.5C3.96243 10.5 1.5 12.9624 1.5 16C1.5 19.0376 3.96243 21.5 7 21.5C10.0376 21.5 12.5 19.0376 12.5 16Z"></path><path d="M6 13.5C6.27614 13.5 6.5 13.7239 6.5 14V16C6.5 16.2761 6.72386 16.5 7 16.5H9C9.27614 16.5 9.5 16.7239 9.5 17C9.5 17.2761 9.27614 17.5 9 17.5H7C6.17157 17.5 5.5 16.8284 5.5 16V14C5.5 13.7239 5.72386 13.5 6 13.5Z"></path>
</svg>