<svg xmlns="http://www.w3.org/2000/svg" viewBox="0 0 64 64">
    <path d="M46,60H18a5,5,0,0,1-5-5V9a5,5,0,0,1,5-5H36.34a5,5,0,0,1,3.54,1.46l9.66,9.66A5,5,0,0,1,51,18.66V55A5,5,0,0,1,46,60ZM18,6a3,3,0,0,0-3,3V55a3,3,0,0,0,3,3H46a3,3,0,0,0,3-3V18.66a3,3,0,0,0-.88-2.12L38.46,6.88A3,3,0,0,0,36.34,6Z"></path><path d="M45 19H41a5 5 0 01-5-5V10a1 1 0 012 0v4a3 3 0 003 3h4a1 1 0 010 2zM32 15H21a1 1 0 010-2H32a1 1 0 010 2zM35 22H21a1 1 0 010-2H35a1 1 0 010 2zM43 29H21a1 1 0 010-2H43a1 1 0 010 2zM43 36H21a1 1 0 010-2H43a1 1 0 010 2zM43 43H21a1 1 0 010-2H43a1 1 0 010 2zM43 50H21a1 1 0 010-2H43a1 1 0 010 2z"></path>
</svg>